<svg width="231" height="32" viewBox="0 0 231 32" fill="none" xmlns="http://www.w3.org/2000/svg">
<mask id="mask0" mask-type="alpha" maskUnits="userSpaceOnUse" x="100" y="1" width="31" height="31">
<circle cx="115.5" cy="16.0001" r="15.0001" fill="white"/>
</mask>
<g mask="url(#mask0)">
<rect x="100.5" y="1" width="30.0002" height="30.0002" fill="#A9E6FD"/>
<path fill-rule="evenodd" clip-rule="evenodd" d="M115.502 0.784239C123.79 0.784239 130.509 7.58668 130.509 15.9779C130.509 16.6509 130.466 17.3136 130.382 17.9635L130.38 17.9631C130.379 17.9734 130.377 17.9835 130.374 17.9936C130.076 19.158 120.939 18.7336 115.176 17.7611C108.855 16.6946 100.77 14.6891 100.766 13.1243L100.76 13.1233C102.079 6.09667 108.178 0.784239 115.502 0.784239Z" fill="url(#paint0_linear)"/>
<path fill-rule="evenodd" clip-rule="evenodd" d="M115.176 17.7611C120.939 18.7336 130.076 19.158 130.374 17.9936C130.672 16.8293 124.692 14.756 116.516 13.411C114.526 13.0837 101.103 11.1362 100.766 13.1232C100.766 14.6881 108.854 16.6944 115.176 17.7611Z" fill="#D12000"/>
<path fill-rule="evenodd" clip-rule="evenodd" d="M117.459 5.31614C117.973 5.40665 118.318 5.90203 118.228 6.42261L115.115 24.5506C114.901 25.7981 115.727 26.9863 116.959 27.2032C118.191 27.4201 119.365 26.5839 119.579 25.3364L119.701 24.6259C119.791 24.1053 120.28 23.7567 120.794 23.8472C121.308 23.9377 121.653 24.4331 121.563 24.9536L121.441 25.6641C121.048 27.9528 118.896 29.4863 116.635 29.0884C114.375 28.6905 112.86 26.5115 113.253 24.2228L116.366 6.09484C116.456 5.57426 116.945 5.22563 117.459 5.31614Z" fill="black"/>
<path fill-rule="evenodd" clip-rule="evenodd" d="M115.502 0.784239C123.79 0.784239 130.509 7.58668 130.509 15.9779C130.509 16.6509 130.466 17.3136 130.382 17.9635L130.38 17.9631C130.568 16.7934 124.621 14.7443 116.516 13.411C114.526 13.0837 101.103 11.1362 100.766 13.1232C100.766 13.1236 100.766 13.1239 100.766 13.1243L100.76 13.1233C102.079 6.09667 108.178 0.784239 115.502 0.784239Z" fill="url(#paint1_linear)"/>
</g>
<path d="M138.625 4.41257V27.0002H142.558V7.46759H149.578V27.0002H153.51V4.41257H138.625Z" fill="black"/>
<path d="M163.313 10.3276C159.055 10.3276 156.098 13.3501 156.098 18.8427C156.098 24.3027 159.055 27.3252 163.313 27.3252C167.57 27.3252 170.528 24.3027 170.528 18.8102C170.528 13.3501 167.57 10.3276 163.313 10.3276ZM163.313 24.2702C161.168 24.2702 160.095 22.6127 160.095 18.8427C160.095 15.0401 161.168 13.3826 163.313 13.3826C165.458 13.3826 166.53 15.0402 166.53 18.8102C166.53 22.6127 165.458 24.2702 163.313 24.2702Z" fill="black"/>
<path d="M173.125 10.6526V27.0002H176.992V13.7076H182.972V10.6526H173.125Z" fill="black"/>
<path d="M191.179 10.3276C186.922 10.3276 183.964 13.3501 183.964 18.8427C183.964 24.3027 186.922 27.3252 191.179 27.3252C195.437 27.3252 198.394 24.3027 198.394 18.8102C198.394 13.3501 195.437 10.3276 191.179 10.3276ZM191.179 24.2702C189.034 24.2702 187.962 22.6127 187.962 18.8427C187.962 15.0401 189.034 13.3826 191.179 13.3826C193.324 13.3826 194.397 15.0402 194.397 18.8102C194.397 22.6127 193.324 24.2702 191.179 24.2702Z" fill="black"/>
<path d="M214.817 23.9452H213.094V10.6526H201.817V12.0501C201.817 16.0477 201.557 21.2152 200.192 23.9452H198.989V30.7378H202.564V27.0002H211.242V30.7378H214.817V23.9452ZM209.227 23.9452H203.767C204.839 21.4752 205.132 17.0227 205.132 14.1951V13.7076H209.227V23.9452Z" fill="black"/>
<path d="M228.985 15.8527C228.985 11.8876 226.97 10.3926 222.875 10.3926C220.308 10.3926 218.293 11.2051 217.123 11.8876V15.1052C218.163 14.3251 220.438 13.4801 222.42 13.4801C224.273 13.4801 225.118 14.1301 225.118 15.8852V16.7952H224.5C218.585 16.7952 215.953 18.7452 215.953 22.0602C215.953 25.3752 217.968 27.2277 220.958 27.2277C223.233 27.2277 224.208 26.4802 224.955 25.7002H225.118C225.15 26.1227 225.28 26.6752 225.41 27.0002H229.18C229.05 25.6677 228.985 24.3352 228.985 23.0027V15.8527ZM225.118 23.1002C224.63 23.8152 223.72 24.4002 222.355 24.4002C220.73 24.4002 219.918 23.4252 219.918 21.9627C219.918 20.0452 221.25 19.3627 224.565 19.3627H225.118V23.1002Z" fill="black"/>
<path d="M12.9332 27.0002H16.8657V4.41248H11.1457C5.39311 4.41248 2.37059 7.37 2.37059 11.725C2.37059 15.2026 4.0281 17.2501 6.98563 19.3626L1.85059 27.0002H6.10812L11.8282 18.4526L9.84565 17.1201C7.44063 15.4951 6.27062 14.2276 6.27062 11.4975C6.27062 9.09251 7.96063 7.4675 11.1782 7.4675H12.9332V27.0002ZM64.5761 25.8951V22.7426C63.3736 23.5551 61.3586 24.2701 59.4735 24.2701C56.646 24.2701 55.5735 22.9376 55.411 20.2076H64.7386V18.1601C64.7386 12.4725 62.2361 10.3275 58.3685 10.3275C53.656 10.3275 51.4135 13.9351 51.4135 18.8751C51.4135 24.5626 54.2085 27.3252 59.1485 27.3252C61.6185 27.3252 63.4386 26.6751 64.5761 25.8951ZM88.7563 27.3252C90.5438 27.3252 91.8113 27.0002 92.7538 26.3176V23.1651C91.7788 23.8476 90.6088 24.2701 88.9838 24.2701C86.2213 24.2701 85.0837 22.1251 85.0837 18.7451C85.0837 15.2026 86.4813 13.3825 89.0163 13.3825C90.5113 13.3825 91.9738 13.9026 92.7538 14.3901V11.1075C91.9413 10.6525 90.5113 10.3275 88.5938 10.3275C83.6537 10.3275 81.0862 13.8701 81.0862 18.8426C81.0862 24.3026 83.5887 27.3252 88.7563 27.3252ZM29.1508 10.6525V17.1201H23.9833V10.6525H20.1157V27.0002H23.9833V20.1751H29.1508V27.0002H33.0183V10.6525H29.1508ZM50.471 23.9451H48.7485V10.6525H37.4709V12.05C37.4709 16.0476 37.2109 21.2151 35.8459 23.9451H34.6433V30.7377H38.2184V27.0002H46.8959V30.7377H50.471V23.9451ZM76.9262 27.0002H81.3137L75.1062 18.1926L80.5662 10.6525H76.6662L71.2061 18.1926V10.6525H67.3386V27.0002H71.2061V18.9726L76.9262 27.0002ZM58.3035 13.3825C60.221 13.3825 60.806 14.9751 60.806 17.0226V17.3476H55.411C55.5085 14.7476 56.451 13.3825 58.3035 13.3825ZM44.8809 23.9451H39.4209C40.4934 21.4751 40.7859 17.0226 40.7859 14.1951V13.7075H44.8809V23.9451Z" fill="black"/>
<defs>
<linearGradient id="paint0_linear" x1="117.688" y1="4.12502" x2="114.875" y2="19.4376" gradientUnits="userSpaceOnUse">
<stop stop-color="#FC3F1D"/>
<stop offset="1" stop-color="#FD8974"/>
</linearGradient>
<linearGradient id="paint1_linear" x1="117.794" y1="5.79806" x2="114.013" y2="28.5944" gradientUnits="userSpaceOnUse">
<stop stop-color="#FC3F1D"/>
<stop offset="1" stop-color="#FC3F1D" stop-opacity="0"/>
</linearGradient>
</defs>
</svg>
